<svg width="28" height="14" viewBox="0 0 28 14" fill="none" xmlns="http://www.w3.org/2000/svg">
<path d="M21.65 1.00001C18 1.00001 15.3 3.69001 14 5.32001C12.7 3.69001 10 1.00001 6.35 1.00001C4.71321 0.956932 3.12603 1.56411 1.93591 2.68864C0.74579 3.81316 0.0496914 5.36341 0 7.00001C0.0496914 8.63661 0.74579 10.1869 1.93591 11.3114C3.12603 12.4359 4.71321 13.0431 6.35 13C10 13 12.7 10.31 14 8.68001C15.3 10.31 18 13 21.65 13C23.2868 13.0431 24.874 12.4359 26.0641 11.3114C27.2542 10.1869 27.9503 8.63661 28 7.00001C27.9503 5.36341 27.2542 3.81316 26.0641 2.68864C24.874 1.56411 23.2868 0.956932 21.65 1.00001ZM6.35 11.09C5.23137 11.1224 4.14551 10.7101 3.3302 9.94352C2.51488 9.17694 2.03657 8.11851 2 7.00001C2.03657 5.88151 2.51488 4.82308 3.3302 4.0565C4.14551 3.28992 5.23137 2.87766 6.35 2.91001C9.52 2.91001 11.95 5.83001 12.81 7.00001C12 8.17001 9.54 11.09 6.35 11.09ZM21.64 11.09C18.47 11.09 16.04 8.17001 15.18 7.00001C16.03 5.83001 18.45 2.91001 21.64 2.91001C22.7603 2.87496 23.8488 3.28602 24.6663 4.05288C25.4838 4.81975 25.9634 5.87972 26 7.00001C25.9634 8.11851 25.4851 9.17694 24.6698 9.94352C23.8545 10.7101 22.7686 11.1224 21.65 11.09H21.64Z" fill="#00B956"/>
</svg>
