<svg width="32" height="32" viewBox="0 0 32 32" fill="none" xmlns="http://www.w3.org/2000/svg">
<path d="M18 17H12V19H18V17Z" fill="#00B956"/>
<path d="M20 13H12V15H20V13Z" fill="#00B956"/>
<path d="M5.37 28L10.37 26.58C12.8581 27.9032 15.7324 28.3085 18.4894 27.7249C21.2463 27.1413 23.7099 25.6061 25.4485 23.3883C27.187 21.1705 28.0896 18.4116 27.998 15.5951C27.9064 12.7785 26.8266 10.0841 24.9476 7.9839C23.0687 5.88371 20.5105 4.51177 17.7215 4.10851C14.9325 3.70525 12.0906 4.2964 9.69369 5.77836C7.29681 7.26032 5.49795 9.53855 4.61233 12.2138C3.72672 14.889 3.81086 17.7906 4.85 20.41L3 24.51L5.37 28ZM6.86 20C5.90979 17.8191 5.76823 15.3708 6.46074 13.0948C7.15325 10.8189 8.63446 8.86438 10.6384 7.58229C12.6423 6.30019 15.0377 5.77451 17.3943 6.09963C19.751 6.42475 21.9145 7.57938 23.4964 9.35618C25.0784 11.133 25.975 13.4155 26.0254 15.794C26.0758 18.1724 25.2766 20.4909 23.7714 22.3331C22.2661 24.1753 20.1534 25.4206 17.8127 25.8452C15.4719 26.2698 13.0564 25.8461 11 24.65L10.74 24.51L6 26L5 24.51L7 20.35L6.86 20Z" fill="#00B956"/>
</svg>
