<svg width="60" height="60" viewBox="0 0 60 60" fill="none" xmlns="http://www.w3.org/2000/svg">
<g clip-path="url(#clip0_903_26116)">
<path d="M59.2113 29.7695C59.2127 33.8622 58.3777 37.9116 56.7582 41.666C56.5703 42.101 56.3635 42.536 56.1567 42.9615C51.1666 53.1218 40.8787 59.5528 29.6151 59.5528C18.3514 59.5528 8.06351 53.1218 3.07341 42.9615C2.86664 42.536 2.65987 42.101 2.4719 41.666C0.845972 37.9129 0.00459596 33.8636 6.34324e-05 29.7695C-0.00938256 25.1997 1.03628 20.6902 3.05461 16.5964C3.25198 16.1803 3.47755 15.7548 3.70311 15.3481C5.04596 12.9219 6.71594 10.6942 8.66558 8.72848C20.2232 -2.89867 38.9599 -2.89867 50.5176 8.72848C52.4701 10.694 54.1432 12.9216 55.4894 15.3481C55.715 15.7548 55.9312 16.1803 56.1379 16.5964C58.1582 20.6902 59.2101 25.1988 59.2113 29.7695Z" fill="#00B956"/>
<path d="M25.7332 44.049C26.9848 44.4292 28.289 44.6048 29.596 44.5691C35.606 44.5691 41.0242 40.9264 43.3241 35.3397C45.624 29.7529 44.3527 23.3222 40.103 19.0463C35.8533 14.7703 29.4621 13.4912 23.9096 15.8053C18.3571 18.1194 14.7368 23.5711 14.7368 29.6182C14.7029 31.718 15.1465 33.7979 16.0338 35.6988L14.2387 36.531C13.2411 34.3664 12.74 32.0039 12.7725 29.6182C12.7725 20.2694 20.3046 12.6908 29.596 12.6908C38.8873 12.6908 46.4195 20.2694 46.4195 29.6182C46.4195 38.9669 38.8873 46.5456 29.596 46.5456C28.0754 46.5981 26.5568 46.3935 25.1034 45.9403L25.7332 44.049Z" fill="white"/>
<path d="M37.8668 29.779L24.4644 22.8756V36.6823L37.8668 29.779Z" fill="white"/>
<path d="M16.5135 40.465C17.5517 40.465 18.3932 39.6182 18.3932 38.5736C18.3932 37.5291 17.5517 36.6823 16.5135 36.6823C15.4754 36.6823 14.6338 37.5291 14.6338 38.5736C14.6338 39.6182 15.4754 40.465 16.5135 40.465Z" fill="#731982"/>
<path d="M19.1449 43.8126C20.183 43.8126 21.0246 42.9658 21.0246 41.9213C21.0246 40.8767 20.183 40.03 19.1449 40.03C18.1067 40.03 17.2651 40.8767 17.2651 41.9213C17.2651 42.9658 18.1067 43.8126 19.1449 43.8126Z" fill="#731982"/>
<path d="M22.9232 45.7418C23.9613 45.7418 24.8029 44.895 24.8029 43.8504C24.8029 42.8059 23.9613 41.9591 22.9232 41.9591C21.885 41.9591 21.0435 42.8059 21.0435 43.8504C21.0435 44.895 21.885 45.7418 22.9232 45.7418Z" fill="white"/>
</g>
<defs>
<clipPath id="clip0_903_26116">
<rect width="60" height="60" fill="white"/>
</clipPath>
</defs>
</svg>
