<svg width="32" height="32" viewBox="0 0 32 32" fill="none" xmlns="http://www.w3.org/2000/svg">
<path d="M20.75 28C21.1768 28 21.5994 27.9159 21.9937 27.7526C22.388 27.5893 22.7463 27.3499 23.0481 27.0481C23.3499 26.7463 23.5893 26.388 23.7526 25.9937C23.9159 25.5994 24 25.1768 24 24.75V7.25C24 6.38805 23.6576 5.5614 23.0481 4.9519C22.4386 4.34241 21.612 4 20.75 4H11.25C10.388 4 9.5614 4.34241 8.9519 4.9519C8.34241 5.5614 8 6.38805 8 7.25V24.75C8 25.1768 8.08406 25.5994 8.24739 25.9937C8.41072 26.388 8.65011 26.7463 8.9519 27.0481C9.25369 27.3499 9.61197 27.5893 10.0063 27.7526C10.4006 27.9159 10.8232 28 11.25 28H20.75ZM10 24.75V7.25C10 6.91848 10.1317 6.60054 10.3661 6.36612C10.6005 6.1317 10.9185 6 11.25 6H20.75C21.0815 6 21.3995 6.1317 21.6339 6.36612C21.8683 6.60054 22 6.91848 22 7.25V24.75C22 25.0815 21.8683 25.3995 21.6339 25.6339C21.3995 25.8683 21.0815 26 20.75 26H11.25C10.9185 26 10.6005 25.8683 10.3661 25.6339C10.1317 25.3995 10 25.0815 10 24.75Z" fill="#00B956"/>
<path d="M19 7H13V9H19V7Z" fill="#00B956"/>
<path d="M16 25C16.8284 25 17.5 24.3284 17.5 23.5C17.5 22.6716 16.8284 22 16 22C15.1716 22 14.5 22.6716 14.5 23.5C14.5 24.3284 15.1716 25 16 25Z" fill="#00B956"/>
</svg>
