<svg width="32" height="32" viewBox="0 0 32 32" fill="none" xmlns="http://www.w3.org/2000/svg">
<path d="M16 5.99997C17.54 5.99542 19.0655 6.29622 20.4885 6.88497C21.9114 7.47371 23.2035 8.33872 24.29 9.42997L25.71 7.99997C23.1337 5.42667 19.6413 3.98126 16 3.98126C12.3587 3.98126 8.86633 5.42667 6.29004 7.99997L7.71004 9.42997C8.79658 8.33872 10.0887 7.47371 11.5116 6.88497C12.9346 6.29622 14.4601 5.99542 16 5.99997Z" fill="#00B956"/>
<path d="M12.29 13.53L13.71 14.94C14.3274 14.3519 15.1474 14.0238 16 14.0238C16.8527 14.0238 17.6727 14.3519 18.29 14.94L19.71 13.53C18.7257 12.5469 17.3913 11.9946 16 11.9946C14.6088 11.9946 13.2744 12.5469 12.29 13.53Z" fill="#00B956"/>
<path d="M22.7098 10.77C20.9305 8.99364 18.519 7.99591 16.0048 7.99591C13.4906 7.99591 11.0791 8.99364 9.2998 10.77L10.7098 12.18C12.1144 10.7761 14.0189 9.98749 16.0048 9.98749C17.9907 9.98749 19.8953 10.7761 21.2998 12.18L22.7098 10.77Z" fill="#00B956"/>
<path d="M26 19.29L25 18.93C22.1365 17.7634 19.09 17.1101 16 17C12.91 17.1101 9.86347 17.7634 7 18.93L6 19.29V28H26V19.29ZM24 26H8V20.71C10.5465 19.6778 13.254 19.0991 16 19C18.746 19.0991 21.4535 19.6778 24 20.71V26Z" fill="#00B956"/>
<path d="M19 22H13V24H19V22Z" fill="#00B956"/>
</svg>
