<svg width="123" height="60" viewBox="0 0 123 60" fill="none" xmlns="http://www.w3.org/2000/svg">
<path d="M11.1951 0C3.56206 0 0 4.32929 0 11.079V18.9111C0 25.9167 1.2526 28.9079 6.30213 32.0762L10.1969 34.4966C13.348 36.4055 13.759 37.8222 13.759 41.9154V48.8226C13.759 50.8298 12.8391 52.0695 11.0972 52.0695C9.35533 52.0695 8.43544 50.9085 8.43544 48.8226V37.9797H0V48.9014C0 55.7298 3.48378 59.9804 11.0189 59.9804C18.8085 59.9804 22.3705 55.4739 22.3705 48.9014V40.4001C22.3705 33.9062 20.707 30.5609 15.9118 27.491L12.0171 24.9918C9.27703 23.2404 8.6116 22.0007 8.6116 17.4942V11.1578C8.6116 9.15054 9.53148 7.91079 11.1755 7.91079C12.9174 7.91079 13.9156 9.17022 13.9156 11.1578V21.9023H22.3705V11.079C22.3705 4.40801 18.8085 0 11.1951 0Z" fill="#E00A1E"/>
<path d="M25.0322 9.17062H31.0016V59.1739H39.6133V9.17062H45.5827V0.826904H25.0322V9.17062Z" fill="#E00A1E"/>
<path d="M101.95 0.826904V9.17062H107.919V59.1739H116.531V9.17062H122.5V0.826904H101.95Z" fill="#E00A1E"/>
<path d="M50.887 0.826904L46.0723 59.1541H54.6056L55.78 43.5688H62.0429L63.2173 59.1541H71.9267L67.1315 0.826904H50.887ZM56.3867 35.658L58.4221 8.73769H59.4398L61.4753 35.658H56.3867Z" fill="#E00A1E"/>
<path d="M98.7986 54.7463V39.5741C98.7986 34.7331 96.9783 32.0765 92.5748 31.1516V30.1481C96.9588 29.4789 99.2096 26.232 99.2096 20.9778V11.0795C99.2096 4.66423 95.3931 0.826904 88.0145 0.826904H76.3301V59.1542H84.9417V34.7528H90.1674V54.7463C90.1674 58.0719 91.5765 59.1542 91.5765 59.1542H100.188C100.208 59.174 98.7986 58.0916 98.7986 54.7463ZM90.5979 21.4107C90.5979 25.5825 89.6781 26.8223 86.8598 26.8223H84.9612V8.75738H87.1925C89.8542 8.75738 90.5979 9.8397 90.5979 14.169V21.4107Z" fill="#E00A1E"/>
</svg>
