<svg width="32" height="32" viewBox="0 0 32 32" fill="none" xmlns="http://www.w3.org/2000/svg">
<path d="M16.04 25C16.8905 25 17.58 24.3284 17.58 23.5C17.58 22.6716 16.8905 22 16.04 22C15.1895 22 14.5 22.6716 14.5 23.5C14.5 24.3284 15.1895 25 16.04 25Z" fill="#00B956"/>
<path d="M4 11.79L5.41 13.24C8.26806 10.5263 12.0588 9.01332 16 9.01332C19.9412 9.01332 23.7319 10.5263 26.59 13.24L28 11.79C24.7611 8.71548 20.4657 7.0014 16 7.0014C11.5343 7.0014 7.23886 8.71548 4 11.79Z" fill="#00B956"/>
<path d="M11.36 18.78L12.77 20.23C13.6608 19.4406 14.8098 19.0047 16 19.0047C17.1902 19.0047 18.3392 19.4406 19.23 20.23L20.64 18.78C19.36 17.6468 17.7095 17.0212 16 17.0212C14.2904 17.0212 12.64 17.6468 11.36 18.78Z" fill="#00B956"/>
<path d="M7.42004 15.29L8.83004 16.74C10.867 14.9726 13.4732 13.9996 16.17 13.9996C18.8668 13.9996 21.4731 14.9726 23.51 16.74L24.92 15.29C22.4919 13.1828 19.385 12.0226 16.17 12.0226C12.9551 12.0226 9.84814 13.1828 7.42004 15.29Z" fill="#00B956"/>
</svg>
